<svg xmlns="http://www.w3.org/2000/svg" width="48.001" height="41.062" viewBox="0 0 48.001 41.062">
  <g>
    <rect x="5.669" y="7.843" width="36.67" height="30.969" fill="#79ccb8"/>
    <g>
      <path d="M28,11.589a3.879,3.879,0,0,0,4-3.746H24A3.879,3.879,0,0,0,28,11.589Z" fill="#fddc85"/>
      <path d="M40.009,7.843,36.573,0H30.255L32.01,7.843H40a4.009,4.009,0,0,0,8,0Z" fill="#fddc85"/>
      <path d="M12,11.589a3.879,3.879,0,0,0,4-3.746H8A3.879,3.879,0,0,0,12,11.589Z" fill="#fddc85"/>
      <polygon points="17.751 0 16 7.843 24 7.843 24 0 17.751 0" fill="#fddc85"/>
      <polygon points="5.439 0 0 7.843 8 7.843 11.437 0 5.439 0" fill="#fddc85"/>
    </g>
    <g>
      <path d="M20,11.589a3.879,3.879,0,0,0,4-3.746H16A3.879,3.879,0,0,0,20,11.589Z" fill="#ffbd66"/>
      <path d="M4,11.589A3.879,3.879,0,0,0,8,7.843H0A3.879,3.879,0,0,0,4,11.589Z" fill="#ffbd66"/>
      <polygon points="11.437 0 8 7.843 16 7.843 17.751 0 11.437 0" fill="#ffbd66"/>
      <polygon points="24.004 0 24.004 7.843 32.004 7.843 30.254 0 24.004 0" fill="#ffbd66"/>
      <path d="M42.562,0H36.573L40,7.843H32.009a4.009,4.009,0,0,0,8,0H48Z" fill="#ffbd66"/>
    </g>
    <rect x="6.468" y="20.078" width="9.146" height="20.233" fill="#3daa9d"/>
    <circle cx="13.218" cy="30.288" r="0.75" fill="#c6c6c6"/>
    <rect x="21.474" y="20.078" width="20.116" height="10.313" fill="#fff"/>
    <g>
      <path d="M5.718,41.062H16.364V19.329H5.718Zm1.5-20.234h7.646V39.561H7.218Z" fill="#c6c6c6"/>
      <path d="M20.724,19.328V31.141H42.34V19.328ZM40.84,29.641H22.224V20.828H40.84Z" fill="#c6c6c6"/>
    </g>
    <rect y="38.812" width="48" height="2.25" fill="#525c6b"/>
    <path d="M32.452,20.409a.562.562,0,0,0-1,.521,10.937,10.937,0,0,1-.442,10.211h1.278A12.44,12.44,0,0,0,32.452,20.409Z" fill="#79ccb8"/>
    <path d="M36.53,21.285a.625.625,0,0,0-.354,1.113c1.113.883,1.941,2.13.4,3.425-1.231,1.038-2.256.229-2.968-.829a.634.634,0,0,0-1.158.232c-.237,1.437-.939,2.827-2.856,2.2-1.515-.5-1.286-1.8-.679-2.985a.635.635,0,0,0-.81-.866c-1.285.48-2.678.5-3.061-1.368-.336-1.645,1.029-2.132,2.4-2.224a.635.635,0,0,0,.366-1.122c-1.061-.88-1.828-2.118-.295-3.41,1.231-1.037,2.254-.226,2.965.833a.634.634,0,0,0,1.159-.23c.238-1.438.94-2.832,2.858-2.2,1.512.5,1.255,1.829.618,3.039a.636.636,0,0,0,.813.87c1.314-.509,2.735-.559,3.118,1.31C39.388,20.722,37.956,21.2,36.53,21.285Z" fill="#f87670"/>
    <circle cx="31.954" cy="20.67" r="1.874" fill="#e2e2e2"/>
  </g>
</svg>
