<?xml version="1.0" encoding="utf-8"?>
<!-- Generator: Adobe Illustrator 16.0.0, SVG Export Plug-In . SVG Version: 6.00 Build 0)  -->
<!DOCTYPE svg PUBLIC "-//W3C//DTD SVG 1.1//EN" "http://www.w3.org/Graphics/SVG/1.1/DTD/svg11.dtd">
<svg version="1.1" xmlns="http://www.w3.org/2000/svg" xmlns:xlink="http://www.w3.org/1999/xlink" x="0px" y="0px" width="64px"
	 height="64px" viewBox="0 0 64 64" enable-background="new 0 0 64 64" xml:space="preserve">
<g id="_x35_0_stock_x2C__box_x2C__building_x2C__storage_x2C__product_x2C__shop_x2C__shopping">
</g>
<g id="_x34_9_magnifier_x2C__search_x2C__discount_x2C__badge_x2C__shop_x2C__shopping_x2C__find">
</g>
<g id="_x34_8_notebook_x2C__list_x2C__bag_x2C__shop_x2C__shopping">
</g>
<g id="_x34_7_purchase_x2C__returns_x2C__box_x2C__arrow_x2C__cycle_x2C__shop_x2C__shopping">
</g>
<g id="_x34_6_shop_x2C__money_x2C__bank_x2C__note_x2C__payment_x2C__cash_x2C__shopping">
</g>
<g id="_x34_5_safe_x2C__door_x2C__box_x2C__bag_x2C__protection_x2C__shop_x2C__shopping">
</g>
<g id="_x34_4_gift_x2C__card_x2C__certificate_x2C__bow_x2C__shop_x2C__shopping">
</g>
<g id="_x34_3_discount_x2C__card_x2C__percent_x2C__badge_x2C__saving_x2C__shop_x2C__shopping">
</g>
<g id="_x34_2_list_x2C__shopping_x2C__phone_x2C__notebook_x2C__app_x2C__smartphone_x2C__shop">
</g>
<g id="_x34_1_aggregator_x2C__site_x2C__aggregation_x2C__market_x2C__online_x2C__shop_x2C__shopping">
</g>
<g id="_x34_0_chain_x2C__store_x2C__stock_x2C__association_x2C__group_x2C__shop_x2C__shopping">
</g>
<g id="_x33_9_check_x2C__list_x2C__purchase_x2C__cost_x2C__cashbox_x2C__shop_x2C__shopping">
</g>
<g id="_x33_8_phone_x2C__purchase_x2C__bag_x2C__product_x2C__smartphone_x2C__shop_x2C__shopping">
</g>
<g id="_x33_7_cashbox_x2C__cash_x2C__scanner_x2C__check_x2C__purchase_x2C__shop_x2C__shopping">
</g>
<g id="_x33_6_payment_x2C__protection_x2C__shield_x2C__safe_x2C__bank_x2C__note_x2C__shopping">
</g>
<g id="_x33_5_coupon_x2C__discount_x2C__sale_x2C__percent_x2C__purchase_x2C__shop_x2C__shopping">
</g>
<g id="_x33_4_umbrella_x2C__box_x2C__insurance_x2C__premise_x2C__delivery_x2C__shop_x2C__shopping">
</g>
<g id="_x33_3_bag_x2C__calculator_x2C__calculation_x2C__money_x2C__shop_x2C__shopping">
</g>
<g id="_x33_2_card_x2C__terminal_x2C__code_x2C__pin_x2C__payment_x2C__shop_x2C__shopping">
</g>
<g id="_x33_1_magnifier_x2C__search_x2C__delivery_x2C__box_x2C__bag_x2C__shop_x2C__shopping">
</g>
<g id="_x33_0_discount_x2C__bag_x2C__purchase_x2C__sale_x2C__badge_x2C__shop_x2C__shopping">
</g>
<g id="_x32_9_discount_x2C__bag_x2C__purchase_x2C__sale_x2C__badge_x2C__shop_x2C__shopping">
</g>
<g id="_x32_8_bag_x2C__gift_x2C__bow_x2C__box_x2C__purchase_x2C__shop_x2C__shopping">
</g>
<g id="_x32_7_review_x2C__woman_x2C__shop_x2C__star_x2C__bag_x2C__shopping_x2C__store">
</g>
<g id="_x32_6_guarantee_x2C__certificate_x2C__shield_x2C__protection_x2C__safe_x2C__purchase_x2C__shopping">
</g>
<g id="_x32_5_cart_x2C__box_x2C__purchase_x2C__product_x2C__shop_x2C__shopping_x2C__store">
</g>
<g id="_x32_4_basket_x2C__purchase_x2C__product_x2C__shop_x2C__shopping_x2C__bag_x2C__store">
	<g>
		<g>
			<g>
				<path fill="#656D78" d="M26.75,3.333c1.2,0.7,1.6,2.22,0.92,3.42h-0.01l-8.8,15.25H13.09l10.24-17.75
					C24.02,3.053,25.55,2.643,26.75,3.333z"/>
			</g>
			<g>
				<path fill="#434A54" d="M40.67,4.253l10.24,17.75H45.14l-8.8-15.25h-0.01c-0.68-1.2-0.28-2.72,0.92-3.42
					C38.45,2.643,39.98,3.053,40.67,4.253z"/>
			</g>
			<g>
				<path fill="#FFCE54" d="M1,27.003h62c-1.66,0-2.75,1.46-3,3l-4,26c-0.48,3-2.24,5-5,5H13c-2.76,0-4.52-2-5-5l-4-26
					C3.75,28.463,2.66,27.003,1,27.003z"/>
			</g>
			<g>
				<path fill="#F6BB42" d="M58.996,27.003c-1.66,0-2.75,1.46-3,3l-4,26c-0.48,3-2.24,5-5,5H51c2.76,0,4.52-2,5-5l4-26
					c0.25-1.54,1.34-3,3-3H58.996z"/>
			</g>
			<g>
				<polygon fill="#ED5565" points="63,22.003 63,27.003 1,27.003 1,22.003 13.09,22.003 18.86,22.003 45.14,22.003 50.91,22.003 
									"/>
			</g>
		</g>
		<g>
			<rect x="58.996" y="22.003" fill="#DA4453" width="4.004" height="5"/>
		</g>
	</g>
	<g>
		<g>
			<path d="M63,28.001H1c-0.553,0-1-0.447-1-1v-5c0-0.553,0.447-1,1-1h62c0.553,0,1,0.447,1,1v5C64,27.554,63.553,28.001,63,28.001z
				 M2,26.001h60v-3H2V26.001z"/>
		</g>
		<g>
			<path d="M3.999,31.001c-0.482,0-0.907-0.35-0.986-0.842C2.846,29.12,2.146,28.001,1,28.001c-0.553,0-1-0.447-1-1s0.447-1,1-1
				c2.316,0,3.69,1.991,3.987,3.842c0.088,0.545-0.283,1.059-0.829,1.146C4.104,30.997,4.052,31.001,3.999,31.001z"/>
		</g>
		<g>
			<path d="M13,62c-3.165,0-5.403-2.184-5.987-5.843c-0.087-0.545,0.284-1.058,0.83-1.145c0.547-0.09,1.059,0.285,1.145,0.83
				C9.188,57.093,9.978,60,13,60c0.553,0,1,0.447,1,1S13.553,62,13,62z"/>
		</g>
		<g>
			<path d="M7.999,57c-0.485,0-0.911-0.354-0.987-0.848l-4-25.999c-0.084-0.546,0.29-1.057,0.836-1.141
				c0.556-0.087,1.057,0.291,1.141,0.836l4,25.999c0.084,0.546-0.29,1.057-0.836,1.141C8.101,56.996,8.049,57,7.999,57z"/>
		</g>
		<g>
			<path d="M60.001,31.001c-0.053,0-0.105-0.004-0.159-0.013c-0.546-0.087-0.917-0.601-0.829-1.146
				c0.297-1.851,1.671-3.842,3.987-3.842c0.553,0,1,0.447,1,1s-0.447,1-1,1c-1.146,0-1.846,1.119-2.013,2.158
				C60.908,30.651,60.483,31.001,60.001,31.001z"/>
		</g>
		<g>
			<path d="M51,62c-0.553,0-1-0.447-1-1s0.447-1,1-1c3.022,0,3.813-2.907,4.013-4.157c0.087-0.545,0.603-0.919,1.145-0.83
				c0.546,0.087,0.917,0.6,0.83,1.145C56.403,59.816,54.165,62,51,62z"/>
		</g>
		<g>
			<path d="M56.001,57c-0.051,0-0.102-0.004-0.153-0.012c-0.546-0.084-0.92-0.595-0.836-1.141l4-25.999
				c0.085-0.546,0.596-0.917,1.141-0.836c0.546,0.084,0.92,0.595,0.836,1.141l-4,25.999C56.912,56.646,56.486,57,56.001,57z"/>
		</g>
		<g>
			<path d="M51,62H13c-0.553,0-1-0.447-1-1s0.447-1,1-1h38c0.553,0,1,0.447,1,1S51.553,62,51,62z"/>
		</g>
		<g>
			<g>
				<path d="M20.999,53c-0.5,0-0.933-0.374-0.992-0.883l-2-17c-0.064-0.549,0.328-1.046,0.876-1.11
					c0.553-0.071,1.046,0.327,1.11,0.876l2,17c0.064,0.549-0.328,1.046-0.876,1.11C21.077,52.998,21.038,53,20.999,53z"/>
			</g>
			<g>
				<path d="M32,53c-0.553,0-1-0.447-1-1V35c0-0.553,0.447-1,1-1s1,0.447,1,1v17C33,52.553,32.553,53,32,53z"/>
			</g>
			<g>
				<path d="M43.001,53c-0.039,0-0.078-0.002-0.118-0.007c-0.548-0.064-0.94-0.562-0.876-1.11l2-17
					c0.064-0.549,0.558-0.945,1.11-0.876c0.548,0.064,0.94,0.562,0.876,1.11l-2,17C43.934,52.626,43.501,53,43.001,53z"/>
			</g>
		</g>
		<g>
			<g>
				<path d="M45.141,23c-0.346,0-0.682-0.179-0.867-0.5L35.47,7.251c-0.276-0.479-0.112-1.09,0.366-1.366
					c0.476-0.277,1.089-0.113,1.366,0.366L46.006,21.5c0.276,0.479,0.112,1.09-0.366,1.366C45.482,22.957,45.311,23,45.141,23z"/>
			</g>
			<g>
				<path d="M50.911,22.996c-0.346,0-0.682-0.18-0.867-0.5L39.8,4.751c-0.276-0.479-0.112-1.09,0.366-1.366
					c0.477-0.276,1.089-0.112,1.366,0.366l10.244,17.745c0.276,0.479,0.112,1.09-0.366,1.366
					C51.253,22.953,51.081,22.996,50.911,22.996z"/>
			</g>
			<g>
				<path d="M36.336,7.751c-0.346,0-0.683-0.18-0.867-0.501c-0.964-1.672-0.389-3.816,1.282-4.78c0.81-0.468,1.754-0.593,2.655-0.35
					c0.903,0.242,1.658,0.821,2.125,1.632c0.276,0.479,0.111,1.09-0.367,1.365c-0.479,0.276-1.091,0.111-1.365-0.367
					c-0.2-0.347-0.523-0.595-0.91-0.698c-0.389-0.104-0.791-0.051-1.138,0.15c-0.717,0.413-0.963,1.332-0.55,2.05
					c0.276,0.479,0.111,1.09-0.367,1.365C36.677,7.708,36.505,7.751,36.336,7.751z"/>
			</g>
		</g>
		<g>
			<g>
				<path d="M18.859,23.001c-0.17,0-0.342-0.043-0.499-0.134c-0.479-0.276-0.643-0.888-0.366-1.366l8.804-15.25
					c0.276-0.479,0.888-0.644,1.366-0.366c0.479,0.276,0.643,0.888,0.366,1.366l-8.804,15.25
					C19.541,22.821,19.205,23.001,18.859,23.001z"/>
			</g>
			<g>
				<path d="M13.087,23c-0.17,0-0.342-0.043-0.499-0.134c-0.479-0.276-0.643-0.888-0.366-1.366L22.468,3.751
					c0.276-0.479,0.889-0.643,1.366-0.366c0.479,0.276,0.643,0.888,0.366,1.366L13.954,22.5C13.769,22.82,13.433,23,13.087,23z"/>
			</g>
			<g>
				<path d="M27.664,7.751c-0.169,0-0.341-0.043-0.498-0.134c-0.479-0.275-0.644-0.887-0.367-1.365
					c0.413-0.718,0.167-1.637-0.55-2.05c-0.348-0.201-0.752-0.253-1.138-0.15c-0.387,0.104-0.71,0.352-0.91,0.698
					c-0.275,0.479-0.886,0.644-1.365,0.367c-0.479-0.275-0.644-0.887-0.367-1.365c0.467-0.811,1.222-1.39,2.125-1.632
					c0.902-0.242,1.847-0.118,2.655,0.35c1.671,0.964,2.246,3.108,1.282,4.78C28.347,7.571,28.01,7.751,27.664,7.751z"/>
			</g>
		</g>
	</g>
</g>
<g id="_x32_3_car_x2C__truck_x2C__box_x2C__courier_x2C__purchase_x2C__fast_x2C__speed">
</g>
<g id="_x32_2_car_x2C__truck_x2C__gift_x2C__box_x2C__courier_x2C__purchase_x2C__shopping">
</g>
<g id="_x32_1_car_x2C__truck_x2C__box_x2C__courier_x2C__purchase_x2C__shop_x2C__shopping">
</g>
<g id="_x32_0_ship_x2C__cargo_x2C__container_x2C__box_x2C__delivery_x2C__purchase_x2C__shopping">
</g>
<g id="_x31_9_purse_x2C__cash_x2C__bank_x2C__note_x2C__money_x2C__purchase_x2C__payment">
</g>
<g id="_x31_8_plane_x2C__airplane_x2C__delivery_x2C__box_x2C__fast_x2C__shop_x2C__shopping">
</g>
<g id="_x31_7_box_x2C__delivery_x2C__time_x2C__clock_x2C__premise_x2C__fast_x2C__courier">
</g>
<g id="_x31_6_door_x2C__signboard_x2C__glass_x2C__banner_x2C__open_x2C__shop_x2C__shopping">
</g>
<g id="_x31_5_supermarket_x2C__moll_x2C__market_x2C__center_x2C__building_x2C__shop_x2C__shopping">
</g>
<g id="_x31_4_computer_x2C__online_x2C__store_x2C__monitor_x2C__product_x2C__shop_x2C__shopping">
</g>
<g id="_x31_3_online_x2C__store_x2C__phone_x2C__app_x2C__smartphone_x2C__shop_x2C__shopping">
</g>
<g id="_x31_2_shop_x2C__shopping_x2C__offline_x2C__building_x2C__location_x2C__bush_x2C__signboard">
</g>
<g id="_x31_1_courier_x2C__man_x2C__box_x2C__delivery_x2C__purchase_x2C__shop_x2C__shopping">
</g>
<g id="_x31_0_product_x2C__purchase_x2C__review_x2C__like_x2C__media_x2C__smm_x2C__blog">
</g>
<g id="_x39__delivery_x2C__box_x2C__hand_x2C__courier_x2C__purchase_x2C__shop_x2C__shopping">
</g>
<g id="_x38__hand_x2C__credit_x2C__card_x2C__money_x2C__payment_x2C__shop_x2C__shopping">
</g>
<g id="_x37__quality_x2C__control_x2C__tablet_x2C__check_x2C__list_x2C__product_x2C__box">
</g>
<g id="_x36__map_x2C__location_x2C__navigation_x2C__address_x2C__signboard_x2C__shop_x2C__shopping">
</g>
<g id="_x35__magnifier_x2C__search_x2C__purchase_x2C__bag_x2C__shop_x2C__shopping_x2C__find">
</g>
<g id="_x34__magnifier_x2C__search_x2C__purchase_x2C__product_x2C__bag_x2C__shop_x2C__shopping">
</g>
<g id="_x33__manager_x2C__consultant_x2C__information_x2C__man_x2C__consultation_x2C__shop_x2C__shopping">
</g>
<g id="_x32__call_x2C__center_x2C__microphone_x2C__woman_x2C__operator_x2C__shop_x2C__shopping">
</g>
<g id="_x31__review_x2C__man_x2C__purchase_x2C__star_x2C__bag_x2C__shop_x2C__shopping">
</g>
</svg>
